<?xml version="1.0" encoding="UTF-8"?>
<!DOCTYPE svg PUBLIC "-//W3C//DTD SVG 1.1//EN" "http://www.w3.org/Graphics/SVG/1.1/DTD/svg11.dtd">
<!-- Creator: CorelDRAW X8 -->
<svg xmlns="http://www.w3.org/2000/svg" xml:space="preserve" width="20.2617mm" height="27.3061mm" version="1.1" style="shape-rendering:geometricPrecision; text-rendering:geometricPrecision; image-rendering:optimizeQuality; fill-rule:evenodd; clip-rule:evenodd"
viewBox="0 0 455 614"
 xmlns:xlink="http://www.w3.org/1999/xlink">
 <defs>
  <style type="text/css">
   <![CDATA[
    .fil1 {fill:#4370B9}
    .fil0 {fill:dimgray}
   ]]>
  </style>
 </defs>
 <g id="Слой_x0020_1">
  <metadata id="CorelCorpID_0Corel-Layer"/>
  <path class="fil0" d="M3 388l207 -137c1,0 2,-1 3,-1 4,0 7,3 7,6l1 214c0,2 -1,4 -3,5l-208 137c-1,1 -2,2 -4,2 -3,0 -6,-3 -6,-7l0 -214c0,-2 1,-4 3,-5z"/>
  <path class="fil0" d="M246 1l207 136c1,2 2,4 2,6l0 214c0,4 -2,7 -6,7 -1,0 -3,-1 -4,-2l-208 -137c-1,-1 -2,-3 -2,-5l1 -214c0,-3 3,-6 6,-6 1,0 3,0 4,1z"/>
  <path class="fil1" d="M246 251l207 137c1,1 2,3 2,5l0 214c0,4 -2,7 -6,7 -1,0 -3,-1 -4,-2l-208 -137c-1,-1 -2,-3 -2,-5l1 -214c0,-3 3,-6 6,-6 1,0 3,1 4,1z"/>
  <path class="fil1" d="M3 137l207 -136c1,-1 2,-1 3,-1 4,0 7,3 7,6l1 214c0,2 -1,4 -3,5l-208 137c-1,1 -2,2 -4,2 -3,0 -6,-3 -6,-7l0 -214c0,-2 1,-4 3,-6z"/>
 </g>
</svg>
