<?xml version="1.0" encoding="UTF-8"?>
<!DOCTYPE svg PUBLIC "-//W3C//DTD SVG 1.1//EN" "http://www.w3.org/Graphics/SVG/1.1/DTD/svg11.dtd">
<!-- Creator: CorelDRAW X8 -->
<svg xmlns="http://www.w3.org/2000/svg" xml:space="preserve" width="64.8395mm" height="13.9108mm" version="1.1" style="shape-rendering:geometricPrecision; text-rendering:geometricPrecision; image-rendering:optimizeQuality; fill-rule:evenodd; clip-rule:evenodd"
viewBox="0 0 2597 557"
 xmlns:xlink="http://www.w3.org/1999/xlink">
 <defs>
  <style type="text/css">
   <![CDATA[
    .fil1 {fill:#4370B9}
    .fil0 {fill:dimgray}
    .fil2 {fill:#4370B9;fill-rule:nonzero}
   ]]>
  </style>
 </defs>
 <g id="Слой_x0020_1">
  <metadata id="CorelCorpID_0Corel-Layer"/>
  <path class="fil0" d="M3 344l183 -121c1,-1 2,-1 3,-1 3,0 6,2 6,5l1 190c0,2 -1,3 -3,4l-184 122c-1,1 -2,1 -3,1 -4,0 -6,-2 -6,-5l0 -191c0,-2 1,-3 3,-4z"/>
  <path class="fil0" d="M218 1l183 121c2,1 3,3 3,4l0 191c0,3 -3,5 -6,5 -1,0 -2,0 -3,-1l-185 -121c-1,-1 -2,-3 -2,-5l1 -190c0,-3 3,-5 6,-5 1,0 2,0 3,1z"/>
  <path class="fil1" d="M218 223l183 121c2,1 3,2 3,4l0 191c0,3 -3,5 -6,5 -1,0 -2,0 -3,-1l-185 -122c-1,-1 -2,-2 -2,-4l1 -190c0,-3 3,-5 6,-5 1,0 2,0 3,1z"/>
  <path class="fil1" d="M3 122l183 -121c1,-1 2,-1 3,-1 3,0 6,2 6,5l1 190c0,2 -1,4 -3,5l-184 121c-1,1 -2,1 -3,1 -4,0 -6,-2 -6,-5l0 -191c0,-1 1,-3 3,-4z"/>
  <path class="fil2" d="M2421 390c0,4 -1,7 -1,10 0,3 0,6 0,8 0,8 1,16 2,24 1,8 3,16 5,24 3,8 6,15 9,22 3,6 7,12 11,17 4,5 9,10 14,14 5,4 11,8 17,11 6,3 13,5 19,6 6,2 13,3 20,3 5,0 10,-1 15,-2 4,0 9,-2 13,-3 5,-2 9,-4 13,-6 3,-3 7,-5 10,-8l0 0c3,-3 6,-8 9,-13 3,-5 5,-11 8,-18l1 -3 11 4 -1 2c-2,12 -6,22 -12,31 -6,9 -13,16 -21,22 -9,6 -19,10 -30,13 -11,3 -24,5 -38,5 -11,0 -23,-1 -33,-3 -10,-2 -20,-5 -29,-9 -8,-4 -16,-9 -24,-15 -7,-5 -14,-12 -20,-20 -8,-12 -14,-24 -19,-38 -4,-13 -6,-28 -6,-44 0,-22 4,-42 12,-59 8,-18 20,-33 36,-45 11,-10 24,-16 37,-21 13,-5 27,-7 42,-7 7,0 15,1 22,2 8,2 15,4 21,7 7,2 13,6 19,10 6,4 11,9 16,14 7,8 12,18 16,28 4,10 5,22 5,34l0 3 -169 0zm-1960 154l0 -9 3 0c5,0 10,-1 15,-1 4,-1 8,-2 11,-3 3,-2 6,-3 9,-5 3,-2 6,-4 8,-7 3,-3 5,-6 7,-10 2,-3 4,-7 5,-12 1,-4 2,-10 2,-18 1,-7 1,-15 1,-25l0 -213c0,-10 0,-19 -1,-26 0,-7 -1,-13 -2,-18 -1,-4 -3,-8 -5,-12 -2,-4 -4,-7 -7,-10l0 0c-2,-2 -5,-5 -8,-7 -3,-2 -6,-3 -9,-4 -3,-1 -7,-2 -11,-3 -5,-1 -10,-1 -15,-2l-3 0 0 -12 193 0c9,0 17,0 23,0 7,0 12,1 15,1l0 0c11,1 21,2 30,5 9,3 18,6 25,11 7,4 12,8 17,14 5,5 10,11 13,17 4,7 6,14 8,21 2,7 3,15 3,23 0,26 -8,47 -24,64 -3,3 -6,6 -10,9 -3,2 -6,5 -10,7 -4,2 -8,4 -13,6 -3,1 -6,2 -9,3 6,1 11,2 15,3 7,2 14,4 19,6 5,2 10,4 15,6 5,3 9,6 13,9l0 0c7,6 12,11 17,18 5,6 9,13 13,21 3,7 6,15 8,24 2,8 2,17 2,25 0,9 0,18 -2,26 -2,8 -5,16 -8,24 -4,7 -8,14 -13,20 -5,6 -11,11 -18,16 -5,4 -12,7 -19,10 -7,3 -14,5 -22,7 -8,1 -18,2 -29,3 -11,1 -24,1 -38,1l-214 0 0 -3zm129 -201l0 116c0,7 1,13 1,19 0,6 1,11 2,15 2,9 5,16 10,22 4,6 11,10 19,13 8,3 17,5 29,5 15,0 29,-2 41,-6 12,-4 22,-11 31,-19 9,-8 15,-18 19,-29 5,-11 7,-24 7,-38 0,-8 -1,-16 -2,-24 -1,-7 -3,-15 -6,-22 -3,-7 -6,-13 -10,-18 -3,-5 -7,-10 -12,-14 -8,-6 -19,-12 -32,-15 -14,-4 -29,-5 -48,-5l-49 0zm0 -181l0 166 21 0c5,0 11,0 16,0 6,-1 12,-1 18,-2 4,-1 9,-2 13,-3 4,0 8,-1 11,-2 3,-1 6,-3 8,-4 3,-1 6,-3 8,-5 5,-3 9,-7 13,-12 3,-4 7,-9 9,-15 3,-6 5,-11 6,-18 1,-6 2,-12 2,-19 0,-14 -3,-28 -8,-41 -3,-6 -6,-12 -10,-17 -3,-5 -7,-9 -11,-12 -4,-3 -8,-6 -12,-8 -5,-2 -9,-4 -14,-5 -5,-1 -11,-2 -19,-2 -7,-1 -16,-1 -27,-1l-24 0zm272 261c0,-16 3,-31 9,-46 6,-14 15,-27 27,-40 14,-15 30,-26 47,-34 17,-7 36,-11 56,-11 20,0 38,4 55,11 17,8 33,19 47,34 12,13 21,26 27,41 5,14 8,29 8,45 0,16 -2,31 -8,45 -6,14 -14,27 -25,39 -14,15 -30,27 -47,34 -17,8 -36,12 -57,12 -21,0 -41,-4 -58,-12 -17,-7 -33,-19 -47,-34 -5,-6 -10,-12 -14,-18 -4,-7 -8,-14 -11,-21 -3,-8 -5,-15 -6,-22 -2,-8 -3,-16 -3,-23zm59 -3c0,16 2,31 5,45 4,14 9,27 17,38 8,13 17,22 27,28 10,6 21,9 32,9 5,0 10,0 15,-2 5,-1 9,-3 14,-6 5,-3 9,-6 13,-10 4,-4 8,-8 12,-13 3,-5 7,-11 10,-18 2,-6 5,-14 7,-22 3,-8 4,-16 5,-23 2,-8 2,-16 2,-23 0,-8 0,-16 -2,-23 -1,-8 -3,-16 -5,-24 -2,-8 -5,-15 -9,-22 -3,-7 -6,-13 -10,-18 -8,-11 -16,-19 -26,-24 -9,-5 -19,-8 -30,-8 -10,0 -20,3 -29,8 -9,6 -17,14 -25,25 -8,11 -13,24 -17,38 -4,13 -6,28 -6,45zm325 -126c2,6 3,11 3,17 1,5 1,9 1,13 11,-10 23,-17 36,-23 14,-6 30,-9 47,-9 12,0 24,2 34,5 10,2 19,7 27,13 8,6 14,13 17,22 4,8 6,18 6,29l0 122c0,6 0,12 1,17 0,4 1,8 1,11 1,3 2,5 4,8 1,2 3,4 5,6l0 0c2,2 6,4 10,6 5,2 11,4 18,5l2 0 0 11 -133 0 0 -11 3 0c5,-1 10,-2 14,-3 4,-1 7,-2 9,-3 3,-2 5,-3 6,-5 2,-3 4,-5 5,-8 1,-2 2,-5 3,-8 1,-3 1,-7 2,-11 0,-5 0,-10 1,-17 0,-6 0,-13 0,-22l0 -61c0,-11 0,-20 -1,-27 0,-8 -1,-14 -1,-19 -1,-5 -2,-9 -3,-13 -2,-3 -3,-7 -5,-9l0 0c-2,-3 -5,-6 -8,-9 -2,-2 -6,-4 -10,-6 -4,-2 -8,-3 -12,-4 -5,-1 -9,-1 -14,-1 -5,0 -10,0 -15,1 -5,1 -10,3 -14,5 -4,2 -8,4 -12,7 -3,3 -6,6 -9,9 -3,4 -5,8 -7,12 -2,4 -3,8 -4,13 -1,5 -1,11 -2,19 0,8 -1,18 -1,29l0 57 1 21c0,6 0,12 0,17 1,4 1,8 2,11 1,3 2,5 3,8 1,2 3,4 5,6l0 0c3,2 6,4 11,6 5,2 11,4 18,5l2 0 0 11 -133 0 0 -11 2 0c6,-1 10,-2 14,-3 4,-1 7,-2 10,-3l0 0c2,-2 4,-3 6,-5 2,-3 3,-5 5,-8 1,-2 1,-5 2,-8 1,-3 1,-7 2,-11 0,-5 1,-10 1,-16 0,-7 0,-14 0,-23l0 -71c0,-19 0,-33 -1,-41 -1,-4 -2,-7 -3,-10 -1,-3 -2,-6 -3,-8l0 0c-2,-2 -3,-5 -5,-6 -2,-2 -4,-4 -6,-5 -2,-1 -5,-2 -8,-2 -3,-1 -7,-1 -11,-2l-3 0 0 -11 85 -11 0 2zm472 220l7 4 -1 2c-4,11 -10,19 -18,25 -9,5 -19,8 -32,8 -7,0 -14,-1 -20,-3 -6,-2 -11,-4 -16,-8 -3,-2 -6,-6 -10,-10 -2,-3 -5,-7 -8,-11 -5,5 -10,9 -14,12 -5,4 -9,7 -13,9l0 0c-6,4 -13,6 -21,8 -7,2 -15,3 -24,3 -11,0 -20,-2 -29,-4 -9,-3 -16,-7 -23,-12 -6,-6 -11,-12 -15,-19 -3,-8 -5,-16 -5,-25 0,-8 2,-16 4,-23 3,-7 7,-13 12,-19 3,-3 7,-6 10,-8 4,-3 7,-5 11,-7 4,-2 9,-3 14,-5 6,-2 12,-4 19,-6 17,-4 29,-7 37,-10 4,-2 7,-3 11,-5 3,-2 6,-3 8,-5l0 0c3,-2 6,-5 7,-7 2,-2 4,-5 5,-8 1,-2 2,-6 2,-10 1,-4 1,-8 1,-14 0,-11 -1,-20 -3,-28 -2,-8 -5,-14 -9,-19 -2,-2 -4,-4 -6,-6 -2,-2 -5,-3 -8,-5 -2,-1 -5,-2 -8,-3 -3,0 -6,-1 -9,-1 -4,0 -7,1 -11,2 -3,1 -6,2 -9,4 -2,2 -5,4 -7,7 -2,2 -4,5 -5,8l-8 17c-2,5 -5,9 -9,12 -4,2 -8,3 -14,3 -3,0 -7,0 -10,-1 -3,-2 -6,-3 -8,-6 -3,-2 -5,-5 -6,-8 -1,-3 -2,-7 -2,-10 0,-6 2,-11 6,-16 4,-4 9,-8 17,-12 4,-2 8,-3 13,-5 4,-1 10,-2 15,-3 6,-2 11,-2 17,-3 5,-1 11,-1 16,-1 6,0 12,1 19,1 6,1 12,2 19,4 7,1 13,3 18,5 6,2 11,4 15,7l0 0c7,4 12,8 16,13 4,5 7,10 9,16l0 0c1,3 1,8 2,13 0,5 0,10 0,17l0 107c0,18 1,30 2,37 2,6 4,10 8,13 3,3 8,5 14,5 2,0 5,0 7,-1 2,0 4,-1 5,-2l0 0c2,-1 3,-2 5,-4 2,-2 4,-5 6,-8l2 -2 2 1zm-100 -105c-4,3 -8,6 -12,8 -6,4 -12,8 -18,11 -7,4 -13,7 -18,10 -4,3 -8,5 -11,7 -2,2 -5,4 -7,6 -3,3 -5,5 -7,7 -4,6 -7,12 -9,18 -3,6 -4,13 -4,20 0,6 1,11 3,16 1,5 4,10 7,14 3,3 7,6 11,8 4,2 8,3 13,3 5,0 9,-1 13,-2 4,-1 8,-4 12,-6 4,-3 8,-6 11,-10 3,-4 5,-8 7,-13l0 0c3,-6 5,-14 7,-23 1,-9 2,-20 2,-32l0 -42zm193 -96l0 148 0 22c0,6 0,12 1,16 0,5 1,9 1,12 1,3 2,5 3,8 2,2 3,4 5,6l0 0c3,2 6,4 11,6 5,2 11,4 18,5l2 0 0 11 -133 0 0 -11 2 0c6,-1 11,-2 15,-3 4,-1 7,-2 9,-3 2,-2 4,-3 6,-5 2,-3 3,-5 5,-8 1,-2 2,-5 2,-8 1,-3 2,-7 2,-12 1,-4 1,-9 1,-16 0,-6 0,-13 0,-22l0 -146 -42 0 0 -17 42 0 0 -67c0,-9 1,-17 2,-23 1,-7 3,-13 5,-18 2,-6 6,-11 10,-15 4,-5 9,-9 14,-14 6,-3 11,-7 18,-10 6,-3 13,-5 20,-7 8,-2 15,-4 23,-5 8,-1 16,-2 24,-2 8,0 15,1 21,2 6,2 12,4 16,7 5,2 9,6 12,10 2,4 3,8 3,13 0,3 0,6 -1,9 -1,3 -3,5 -5,7 -2,3 -4,4 -7,5 -3,2 -6,2 -9,2 -3,0 -5,0 -8,-1 -2,-1 -5,-2 -7,-4 -2,-1 -4,-3 -6,-6 -2,-2 -4,-5 -6,-9 -3,-4 -5,-8 -7,-10 -3,-3 -4,-5 -6,-7 -1,-1 -3,-2 -5,-2 -2,-1 -5,-1 -7,-1 -4,0 -7,0 -10,1 -4,1 -7,2 -10,3 -3,1 -6,3 -8,5 -2,2 -4,4 -6,6 -2,2 -4,5 -5,9 -1,3 -2,7 -3,11 -1,4 -1,10 -2,16 0,6 0,13 0,21l0 74 57 0 0 17 -57 0zm102 -10l87 -11 0 169 0 22c0,7 0,12 0,17 1,4 1,8 2,11 1,3 2,5 3,8 2,2 3,4 5,6l0 0c3,2 6,4 11,6 5,2 11,4 18,5l2 0 0 11 -134 0 0 -11 3 0c6,-1 10,-2 14,-3 4,-1 7,-2 10,-3l0 0c2,-2 4,-3 6,-5 2,-3 3,-5 5,-8l0 0c1,-2 1,-5 2,-8 1,-3 1,-7 2,-11 0,-5 1,-10 1,-16 0,-7 0,-14 0,-23l0 -71c0,-19 0,-33 -1,-41 -1,-4 -1,-7 -2,-10 -1,-3 -3,-6 -4,-8l0 0c-2,-2 -3,-5 -5,-6 -2,-2 -4,-4 -6,-5 -2,-1 -5,-2 -8,-2 -3,-1 -7,-1 -11,-2l-2 0 0 -11 2 0zm61 -109c-4,0 -8,-1 -12,-2 -3,-2 -6,-4 -9,-6 -3,-3 -5,-6 -6,-10 -1,-3 -2,-7 -2,-11 0,-4 1,-7 2,-11 1,-3 3,-6 6,-9 3,-2 6,-4 10,-6 3,-1 7,-2 11,-2 4,0 7,1 11,2 3,2 6,4 9,6 3,3 5,6 6,9 2,4 3,7 3,11 0,4 -1,8 -3,11 -1,4 -3,7 -6,10 -2,2 -6,4 -9,6 -3,1 -7,2 -11,2zm280 361c-1,-5 -2,-10 -2,-15 0,-4 -1,-7 -1,-11 -5,4 -11,7 -16,9 -7,4 -14,6 -20,8 -7,3 -14,4 -20,5 -7,1 -14,2 -22,2 -15,0 -29,-3 -41,-7 -13,-5 -25,-11 -36,-20 -6,-6 -12,-13 -18,-20 -5,-7 -9,-15 -13,-23 -4,-9 -6,-18 -8,-27 -2,-10 -3,-20 -3,-30 0,-10 1,-21 3,-31 2,-10 5,-19 9,-29 4,-9 9,-17 14,-25 6,-8 12,-14 19,-21 11,-9 24,-16 37,-21 13,-5 28,-7 43,-7 7,0 14,1 21,2 6,1 12,2 17,5 6,2 12,5 18,9 5,3 10,6 15,10l0 -101c0,-10 -1,-19 -3,-26 -1,-8 -4,-13 -7,-18 -3,-4 -7,-7 -12,-9 -6,-2 -12,-3 -20,-3l-3 0 0 -12c31,-4 63,-8 94,-12l0 338c0,10 1,20 3,27 2,7 4,13 7,17l0 0c3,5 8,8 13,10 5,2 12,3 20,3l2 0 0 13 -89 12 -1 -2zm-4 -135c0,-13 0,-25 -1,-35 0,-10 -1,-18 -2,-25 -2,-6 -3,-12 -5,-17 -2,-6 -4,-10 -7,-15 -3,-3 -6,-6 -9,-9 -3,-3 -7,-5 -11,-7 -4,-2 -8,-4 -13,-5 -4,-1 -8,-2 -13,-2 -10,0 -19,3 -27,7 -9,5 -16,12 -24,21 -4,6 -8,12 -11,19 -4,7 -7,14 -9,22 -3,8 -5,16 -6,24 -1,8 -2,16 -2,24 0,9 1,17 2,25 1,8 3,16 5,23 3,8 5,15 9,22 3,7 6,13 10,18 7,10 15,17 23,22 9,4 18,7 28,7 5,0 9,-1 14,-2 4,-1 9,-3 13,-5 4,-3 8,-6 12,-9 3,-3 6,-7 9,-11 3,-5 5,-10 7,-15 2,-6 3,-12 5,-19 1,-6 2,-15 2,-24 1,-10 1,-21 1,-34zm291 -47c0,-8 -2,-15 -3,-22 -2,-7 -4,-13 -7,-18 -2,-4 -5,-8 -8,-12 -4,-3 -7,-6 -11,-9 -5,-3 -9,-5 -13,-6 -4,-1 -9,-2 -14,-2 -7,0 -15,2 -22,5 -6,4 -13,9 -19,15 -6,7 -11,15 -14,24 -3,7 -5,16 -7,25l118 0z"/>
 </g>
</svg>
